<svg xmlns="http://www.w3.org/2000/svg" xmlns:xlink="http://www.w3.org/1999/xlink" x="0px" y="0px" viewBox="0 0 30 16" xml:space="preserve">
<g id="Layer_1" display="none">
	<image display="inline" width="30" height="16" xlink:href="divide-green.png">
	</image>
</g>
<g id="Layer_2">
	<path fill="#BFD11D" d="M24.1,4h-12c-1.1,0-2-0.9-2-2v0c0-1.1,0.9-2,2-2h12c1.1,0,2,0.9,2,2v0C26.1,3.1,25.2,4,24.1,4z"></path>
	<path fill="#BFD11D" d="M14.5,16H6.8c-1.1,0-2-0.9-2-2v0c0-1.1,0.9-2,2-2h7.7c1.1,0,2,0.9,2,2v0C16.5,15.1,15.6,16,14.5,16z"></path>
	<path fill="#BFD11D" d="M28,10H2c-1.1,0-2-0.9-2-2v0c0-1.1,0.9-2,2-2h26c1.1,0,2,0.9,2,2v0C30,9.1,29.1,10,28,10z"></path>
</g>
</svg>